<?xml version="1.0" encoding="UTF-8" standalone="no"?>
<!DOCTYPE svg PUBLIC "-//W3C//DTD SVG 1.1//EN" "http://www.w3.org/Graphics/SVG/1.1/DTD/svg11.dtd">
<svg width="100%" height="100%" viewBox="0 0 73 73" version="1.1" xmlns="http://www.w3.org/2000/svg" xmlns:xlink="http://www.w3.org/1999/xlink" xml:space="preserve" style="fill-rule:evenodd;clip-rule:evenodd;stroke-linejoin:round;stroke-miterlimit:1.41421;">
    <g id="Artboard1" transform="matrix(1,0,0,1,-13.9037,-3.8601)">
        <rect x="13.904" y="3.86" width="72.125" height="72.142" style="fill:none;"/>
        <g transform="matrix(1,0,0,1,0,-10.0532)">
            <path d="M49.781,23.969C48.756,24.081 47.978,24.969 48,26L48,31C48,31.009 48,31.019 48,31.028C48,32.126 48.903,33.028 50,33.028C51.097,33.028 52,32.126 52,31.028C52,31.019 52,31.009 52,31L52,26C52,25.99 52,25.979 52,25.969C52,24.871 51.097,23.969 50,23.969C49.99,23.969 49.979,23.969 49.969,23.969C49.906,23.966 49.844,23.966 49.781,23.969ZM25.781,33.969C24.762,34.068 23.975,34.935 23.975,35.96C23.975,36.506 24.199,37.029 24.594,37.406L27.594,40.406C27.973,40.877 28.546,41.151 29.151,41.151C30.248,41.151 31.151,40.248 31.151,39.151C31.151,38.546 30.877,37.973 30.406,37.594L27.406,34.594C27.032,34.199 26.513,33.973 25.969,33.969C25.906,33.966 25.844,33.966 25.781,33.969ZM73.969,33.969C73.447,33.989 72.953,34.214 72.594,34.594L69.594,37.594C69.123,37.973 68.849,38.546 68.849,39.151C68.849,40.248 69.752,41.151 70.849,41.151C71.454,41.151 72.027,40.877 72.406,40.406L75.406,37.406C75.796,37.03 76.016,36.51 76.016,35.968C76.016,34.871 75.113,33.968 74.016,33.968C74,33.968 73.984,33.968 73.969,33.969ZM50,36C37.442,36 27.113,45.698 26.094,58L16,58C15.938,57.997 15.875,57.997 15.812,58C14.75,58.05 13.904,58.937 13.904,60C13.904,61.098 14.807,62.002 15.906,62.002C15.937,62.002 15.969,62.001 16,62L84,62C84.009,62 84.019,62 84.028,62C85.126,62 86.028,61.097 86.028,60C86.028,58.903 85.126,58 84.028,58C84.019,58 84.009,58 84,58L30.094,58C31.086,47.869 39.6,40 50,40C58.499,40 65.718,45.273 68.625,52.719C68.922,53.494 69.67,54.008 70.5,54.008C71.602,54.008 72.508,53.102 72.508,52C72.508,51.754 72.463,51.511 72.375,51.281C68.882,42.335 60.159,36 50,36ZM24.813,65C23.75,65.05 22.904,65.937 22.904,67C22.904,68.098 23.807,69.002 24.906,69.002C24.937,69.002 24.969,69.001 25,69L75,69C75.009,69 75.019,69 75.028,69C76.126,69 77.028,68.097 77.028,67C77.028,65.903 76.126,65 75.028,65C75.019,65 75.009,65 75,65L25,65C24.938,64.997 24.875,64.997 24.813,65ZM31.813,72C30.75,72.05 29.904,72.937 29.904,74C29.904,75.098 30.807,76.002 31.906,76.002C31.937,76.002 31.969,76.001 32,76L68,76C68.009,76 68.019,76 68.028,76C69.126,76 70.028,75.097 70.028,74C70.028,72.903 69.126,72 68.028,72C68.019,72 68.009,72 68,72L32,72C31.938,71.997 31.875,71.997 31.813,72Z" style="fill:rgb(51,63,76);fill-rule:nonzero;"/>
        </g>
    </g>
</svg>
